<?xml version="1.0" standalone="no"?>
<!DOCTYPE svg PUBLIC "-//W3C//DTD SVG 20010904//EN"
 "http://www.w3.org/TR/2001/REC-SVG-20010904/DTD/svg10.dtd">
<svg version="1.0" xmlns="http://www.w3.org/2000/svg"
 width="481.000000pt" height="425.000000pt" viewBox="0 0 481.000000 425.000000"
 preserveAspectRatio="xMidYMid meet">
<metadata>
Created by potrace 1.15, written by Peter Selinger 2001-2017
</metadata>
<g transform="translate(0.000000,425.000000) scale(0.100000,-0.100000)"
fill="#000000" stroke="none">
<path d="M1151 3803 c-101 -70 -121 -84 -202 -147 -70 -54 -89 -73 -89 -92 0
-16 131 -119 261 -207 104 -69 126 -80 134 -67 4 6 9 487 6 558 -1 22 -25 13
-110 -45z"/>
<path d="M2580 3805 c0 -8 -4 -15 -9 -15 -5 0 -29 -21 -53 -47 -104 -112 -148
-147 -388 -310 -132 -89 -147 -99 -175 -113 -11 -6 -54 -33 -95 -60 -41 -27
-91 -59 -110 -70 -119 -70 -175 -108 -178 -121 -1 -8 12 -23 30 -33 79 -47
308 -299 308 -339 0 -6 10 -30 21 -54 19 -39 23 -43 39 -31 10 7 70 48 132 91
63 43 126 89 141 103 14 13 31 24 36 24 6 0 20 11 33 24 13 13 50 47 83 77 33
29 69 65 80 80 11 15 48 62 83 104 34 42 62 85 62 96 0 10 5 19 10 19 6 0 10
8 10 17 0 9 7 24 16 34 13 15 14 25 6 56 -6 22 -10 29 -11 17 -1 -11 -12 -31
-26 -44 l-25 -23 0 41 c0 23 4 42 9 42 19 0 24 60 7 79 -21 23 -20 52 2 57 15
4 17 18 15 112 -2 117 3 155 20 145 5 -3 7 -1 3 5 -3 6 -20 9 -36 7 -28 -4
-30 -2 -24 20 4 15 2 25 -5 25 -6 0 -11 -7 -11 -15z"/>
<path d="M573 3192 c-7 -4 -19 -25 -28 -45 -14 -33 -16 -112 -15 -625 1 -323
6 -619 11 -659 6 -39 11 -132 12 -207 2 -122 4 -137 22 -150 20 -15 20 -15 -3
-36 -21 -20 -22 -29 -21 -139 l1 -118 25 5 c29 5 43 -11 43 -50 0 -15 5 -30
10 -33 6 -3 9 -16 9 -28 -1 -18 -2 -19 -6 -4 -3 11 -11 16 -19 13 -8 -3 -14 1
-14 9 0 7 -5 17 -11 21 -26 16 56 -166 93 -209 13 -14 37 -44 53 -67 27 -38
65 -74 243 -229 30 -25 59 -48 65 -50 7 -2 33 -21 58 -42 26 -22 50 -39 54
-39 3 0 22 -12 41 -26 63 -49 63 -51 67 303 2 175 7 329 11 343 8 27 -9 44
-119 112 -71 44 -168 110 -183 125 -7 6 -30 22 -52 34 -22 13 -40 26 -40 30 0
5 -20 22 -44 38 -51 36 -176 157 -176 172 0 17 117 129 135 129 17 0 80 -50
189 -151 55 -51 238 -191 341 -261 22 -15 63 -43 90 -63 28 -19 68 -40 90 -46
33 -9 191 -103 365 -216 19 -13 42 -28 50 -33 244 -154 434 -296 550 -411 87
-85 204 -245 216 -295 3 -13 10 -24 15 -24 17 0 21 78 17 367 -4 256 -7 304
-22 343 -62 156 -140 266 -284 399 -55 51 -114 102 -129 112 -15 10 -53 37
-83 59 -30 22 -95 66 -144 98 -128 82 -136 91 -136 151 0 28 -8 70 -17 93 -24
61 -56 113 -61 100 -2 -7 -10 -12 -17 -12 -26 0 -30 -65 -5 -94 7 -9 10 -19 7
-22 -8 -8 -32 4 -98 49 -15 10 -35 20 -45 22 -11 2 -53 16 -94 31 -92 32 -303
167 -298 191 3 14 133 108 214 155 16 9 29 23 29 30 0 17 -154 134 -279 212
-17 11 -72 51 -123 88 -51 37 -95 68 -98 68 -13 0 -91 -59 -159 -119 -38 -34
-73 -61 -79 -61 -5 0 -32 22 -58 49 -69 68 -66 81 31 179 44 44 80 86 80 93
-1 8 -46 61 -102 119 -73 76 -109 122 -131 168 -16 34 -30 62 -30 62 -1 0 -7
-4 -14 -8z"/>
<path d="M2192 2412 c-12 -2 -30 -15 -40 -30 -15 -22 -17 -58 -20 -247 -2
-195 -1 -224 15 -255 34 -66 127 -62 148 8 7 26 14 32 37 32 33 0 37 19 8 45
-11 10 -20 26 -20 37 0 35 27 18 63 -39 19 -32 52 -74 72 -93 35 -34 39 -35
132 -40 105 -5 105 -5 123 -77 8 -32 17 -43 40 -51 27 -10 73 -8 92 4 4 3 15
30 24 59 16 58 16 58 99 69 22 3 51 15 65 26 54 43 64 45 109 12 76 -55 206
-62 279 -16 20 13 27 13 55 0 54 -25 114 -35 158 -25 22 5 68 9 102 9 34 0
101 0 149 -1 l88 0 14 33 c8 18 17 41 20 51 8 25 29 16 41 -17 11 -33 -1 -55
-39 -74 -32 -16 -48 -51 -40 -91 10 -47 67 -63 146 -41 33 9 41 19 77 93 23
45 55 123 72 172 46 137 98 189 69 71 -22 -94 2 -165 65 -191 36 -16 51 -16
203 -11 141 5 137 -1 136 184 0 165 -10 197 -67 232 -71 43 -199 45 -264 4
-29 -18 -57 -18 -73 1 -17 20 -70 28 -103 16 -20 -8 -35 -26 -50 -61 -12 -27
-26 -48 -32 -47 -5 2 -18 18 -27 37 -24 46 -41 62 -90 80 -42 15 -43 16 -43
63 0 31 -6 51 -15 57 -18 11 -80 13 -96 2 -19 -12 -26 -50 -15 -88 8 -28 7
-45 -4 -70 -8 -19 -16 -34 -20 -34 -3 0 -23 13 -46 29 -79 58 -195 61 -295 9
l-41 -21 -34 20 c-86 53 -219 49 -282 -8 -36 -33 -49 -36 -68 -12 -33 39 -89
53 -215 53 -130 0 -136 3 -127 51 2 13 0 36 -5 50 -10 25 -14 26 -119 33 -59
3 -120 3 -135 -1 -14 -5 -52 -32 -83 -61 -31 -29 -62 -51 -68 -49 -7 2 -15 20
-18 40 -3 20 -11 42 -18 50 -13 16 -52 24 -89 19z m49 -42 c17 -9 19 -22 19
-105 0 -51 4 -96 9 -99 4 -3 32 22 62 57 112 131 143 157 187 157 23 0 44 -5
47 -11 4 -6 -37 -53 -90 -106 l-97 -95 30 -32 c16 -17 43 -51 59 -76 17 -25
43 -56 57 -69 14 -14 26 -29 26 -34 0 -5 9 -22 21 -38 24 -35 18 -49 -22 -49
-34 0 -60 25 -117 110 -50 74 -93 130 -101 130 -3 0 -21 -14 -38 -31 -32 -29
-33 -33 -33 -110 0 -74 -2 -80 -24 -91 -55 -24 -56 -20 -56 246 0 244 1 252
33 255 5 1 17 -4 28 -9z m433 -136 c14 -5 16 -31 16 -179 0 -165 -1 -174 -20
-180 -11 -3 -24 -3 -30 0 -11 7 -14 347 -3 358 8 9 17 9 37 1z m146 -9 c11
-13 15 -13 33 0 33 23 110 19 149 -7 60 -40 78 -79 78 -167 l0 -78 -51 -52
c-48 -48 -53 -51 -102 -51 -30 0 -62 6 -74 15 -19 13 -22 13 -27 -1 -3 -9 -6
-44 -6 -79 0 -69 -6 -79 -45 -69 l-25 6 0 243 c0 224 1 244 18 248 31 8 39 7
52 -8z m550 -5 c27 -14 40 -27 40 -41 0 -28 -28 -35 -62 -16 -30 17 -83 22
-112 11 -39 -15 -1 -74 48 -74 17 0 40 -7 50 -15 11 -8 29 -15 40 -15 36 0 66
-39 66 -85 0 -59 -47 -103 -117 -112 -73 -8 -115 3 -159 41 -33 29 -37 37 -28
53 19 31 53 28 85 -6 23 -26 35 -31 74 -31 38 0 47 4 57 24 15 35 4 56 -30 56
-15 0 -37 7 -48 15 -10 8 -30 15 -44 15 -17 0 -40 14 -64 39 -45 46 -44 70 5
126 30 33 34 35 95 35 45 0 77 -6 104 -20z m366 -1 c50 -24 52 -32 58 -217 4
-121 3 -122 -20 -128 -13 -4 -35 1 -53 12 -29 17 -32 17 -60 1 -42 -25 -111
-22 -152 6 -30 20 -34 28 -37 74 -3 48 -1 53 30 76 21 16 51 27 83 30 54 5
127 29 132 44 2 5 -6 22 -17 36 -30 38 -92 38 -132 0 -26 -24 -78 -36 -94 -21
-12 13 27 67 63 86 52 28 142 29 199 1z m195 11 c18 -10 19 -23 19 -179 0
-152 -2 -169 -17 -173 -41 -11 -43 -3 -43 176 0 154 3 186 17 186 3 0 13 -5
24 -10z m129 -25 c9 -16 19 -41 23 -55 11 -48 38 -115 53 -130 13 -13 16 -13
24 0 5 8 10 22 10 31 0 9 7 30 15 45 8 16 15 37 15 46 0 9 5 20 10 23 6 3 10
16 10 29 0 28 18 46 47 46 28 0 41 -26 25 -51 -7 -10 -12 -27 -12 -36 0 -10
-7 -27 -15 -37 -8 -11 -15 -30 -15 -42 0 -12 -7 -27 -15 -34 -8 -7 -15 -25
-15 -41 0 -15 -4 -30 -9 -34 -5 -3 -13 -20 -17 -38 -3 -17 -17 -54 -30 -81
-13 -28 -24 -54 -24 -60 0 -5 -10 -20 -22 -33 -36 -38 -124 -28 -116 13 2 13
13 20 35 22 28 3 36 10 53 50 19 42 19 49 6 77 -32 65 -46 104 -46 123 0 12
-4 24 -10 27 -5 3 -10 16 -10 28 0 12 -7 31 -15 41 -8 11 -15 30 -15 42 0 12
-7 27 -15 34 -13 11 -13 15 -3 22 25 16 61 4 78 -27z m570 15 c50 -25 58 -52
62 -213 4 -126 4 -128 -19 -133 -24 -6 -36 -3 -65 18 -14 10 -23 9 -47 -5 -43
-25 -121 -23 -157 5 -40 31 -44 38 -44 81 0 30 7 44 32 68 27 24 41 29 83 29
28 0 59 7 69 15 11 8 30 15 43 15 27 0 30 20 7 55 -13 21 -25 25 -61 25 -36 0
-52 -6 -80 -30 -25 -23 -40 -29 -56 -24 -31 9 -31 10 -13 49 10 21 24 35 35
35 10 0 24 7 31 15 19 23 131 20 180 -5z"/>
<path d="M2857 2142 c-33 -33 -37 -44 -37 -88 0 -45 4 -54 38 -87 64 -62 116
-47 139 42 13 52 1 121 -26 153 -26 31 -72 23 -114 -20z"/>
</g>
</svg>
